<svg xmlns="http://www.w3.org/2000/svg" xmlns:xlink="http://www.w3.org/1999/xlink" width="524" zoomAndPan="magnify" viewBox="0 0 392.88 107.999999" height="144" preserveAspectRatio="xMidYMid meet" version="1.0"><defs><g/><clipPath id="cada062084"><path d="M 24 51 L 51 51 L 51 77 L 24 77 Z M 24 51 " clip-rule="nonzero"/></clipPath><clipPath id="a968c025c0"><path d="M 30.699219 85.808594 L 15.164062 70.273438 L 43.246094 42.1875 L 58.785156 57.722656 Z M 30.699219 85.808594 " clip-rule="nonzero"/></clipPath><clipPath id="658ac58b28"><path d="M 15.238281 70.347656 L 30.773438 85.882812 L 58.859375 57.796875 L 43.320312 42.261719 Z M 15.238281 70.347656 " clip-rule="nonzero"/></clipPath><clipPath id="0e8d4f31ee"><path d="M 0 21.464844 L 21.972656 21.464844 L 21.972656 76.394531 L 0 76.394531 Z M 0 21.464844 " clip-rule="nonzero"/></clipPath></defs><g clip-path="url(#cada062084)"><g clip-path="url(#a968c025c0)"><g clip-path="url(#658ac58b28)"><path fill="#1d4ed8" d="M 43.664062 70.4375 C 50.742188 63.359375 50.023438 51.167969 50.023438 51.167969 C 50.023438 51.167969 37.679688 50.300781 30.605469 57.375 C 23.527344 64.453125 24.394531 76.796875 24.394531 76.796875 C 24.394531 76.796875 36.585938 77.511719 43.664062 70.4375 " fill-opacity="1" fill-rule="nonzero"/></g></g></g><g clip-path="url(#0e8d4f31ee)"><path fill="#1d4ed8" d="M 0 21.835938 L 0 54.554688 C 0 66.609375 9.773438 76.382812 21.828125 76.382812 L 21.828125 43.664062 C 21.828125 31.609375 12.054688 21.835938 0 21.835938 Z M 0 21.835938 " fill-opacity="1" fill-rule="nonzero"/></g><g fill="#1d4ed8" fill-opacity="1"><g transform="translate(59.765419, 75.474555)"><g><path d="M 25.3125 0.78125 C 20.664062 0.78125 16.675781 -0.210938 13.34375 -2.203125 C 10.007812 -4.191406 7.441406 -6.972656 5.640625 -10.546875 C 3.847656 -14.117188 2.953125 -18.253906 2.953125 -22.953125 C 2.953125 -27.640625 3.847656 -31.78125 5.640625 -35.375 C 7.441406 -38.96875 10.007812 -41.769531 13.34375 -43.78125 C 16.675781 -45.800781 20.664062 -46.8125 25.3125 -46.8125 C 30.832031 -46.8125 35.359375 -45.441406 38.890625 -42.703125 C 42.421875 -39.960938 44.625 -36.117188 45.5 -31.171875 L 36.234375 -31.171875 C 35.660156 -33.660156 34.441406 -35.617188 32.578125 -37.046875 C 30.710938 -38.472656 28.25 -39.1875 25.1875 -39.1875 C 20.925781 -39.1875 17.59375 -37.738281 15.1875 -34.84375 C 12.78125 -31.957031 11.578125 -27.992188 11.578125 -22.953125 C 11.578125 -17.910156 12.78125 -13.953125 15.1875 -11.078125 C 17.59375 -8.203125 20.925781 -6.765625 25.1875 -6.765625 C 28.25 -6.765625 30.710938 -7.429688 32.578125 -8.765625 C 34.441406 -10.109375 35.660156 -11.960938 36.234375 -14.328125 L 45.5 -14.328125 C 44.625 -9.597656 42.421875 -5.894531 38.890625 -3.21875 C 35.359375 -0.550781 30.832031 0.78125 25.3125 0.78125 Z M 25.3125 0.78125 "/></g></g></g><g fill="#1d4ed8" fill-opacity="1"><g transform="translate(105.251046, 75.474555)"><g><path d="M 19.921875 0.78125 C 16.765625 0.78125 13.925781 0.0625 11.40625 -1.375 C 8.882812 -2.820312 6.890625 -4.828125 5.421875 -7.390625 C 3.953125 -9.960938 3.21875 -12.9375 3.21875 -16.3125 C 3.21875 -19.6875 3.960938 -22.65625 5.453125 -25.21875 C 6.941406 -27.78125 8.945312 -29.785156 11.46875 -31.234375 C 13.988281 -32.679688 16.828125 -33.40625 19.984375 -33.40625 C 23.097656 -33.40625 25.914062 -32.679688 28.4375 -31.234375 C 30.957031 -29.785156 32.953125 -27.78125 34.421875 -25.21875 C 35.890625 -22.65625 36.625 -19.6875 36.625 -16.3125 C 36.625 -12.9375 35.890625 -9.960938 34.421875 -7.390625 C 32.953125 -4.828125 30.945312 -2.820312 28.40625 -1.375 C 25.863281 0.0625 23.035156 0.78125 19.921875 0.78125 Z M 19.921875 -6.515625 C 22.109375 -6.515625 24.015625 -7.332031 25.640625 -8.96875 C 27.265625 -10.613281 28.078125 -13.0625 28.078125 -16.3125 C 28.078125 -19.550781 27.265625 -21.992188 25.640625 -23.640625 C 24.015625 -25.285156 22.128906 -26.109375 19.984375 -26.109375 C 17.753906 -26.109375 15.835938 -25.285156 14.234375 -23.640625 C 12.628906 -21.992188 11.828125 -19.550781 11.828125 -16.3125 C 11.828125 -13.0625 12.628906 -10.613281 14.234375 -8.96875 C 15.835938 -7.332031 17.734375 -6.515625 19.921875 -6.515625 Z M 19.921875 -6.515625 "/></g></g></g><g fill="#1d4ed8" fill-opacity="1"><g transform="translate(142.12581, 75.474555)"><g><path d="M 4.28125 0 L 4.28125 -47.34375 L 12.6875 -47.34375 L 12.6875 0 Z M 4.28125 0 "/></g></g></g><g fill="#1d4ed8" fill-opacity="1"><g transform="translate(156.191666, 75.474555)"><g><path d="M 15.515625 0.78125 C 12.710938 0.78125 10.410156 0.332031 8.609375 -0.5625 C 6.816406 -1.457031 5.476562 -2.648438 4.59375 -4.140625 C 3.71875 -5.628906 3.28125 -7.273438 3.28125 -9.078125 C 3.28125 -12.097656 4.460938 -14.550781 6.828125 -16.4375 C 9.203125 -18.320312 12.753906 -19.265625 17.484375 -19.265625 L 25.78125 -19.265625 L 25.78125 -20.046875 C 25.78125 -22.285156 25.140625 -23.929688 23.859375 -24.984375 C 22.585938 -26.035156 21.015625 -26.5625 19.140625 -26.5625 C 17.421875 -26.5625 15.925781 -26.15625 14.65625 -25.34375 C 13.382812 -24.53125 12.597656 -23.335938 12.296875 -21.765625 L 4.078125 -21.765625 C 4.296875 -24.128906 5.09375 -26.1875 6.46875 -27.9375 C 7.851562 -29.695312 9.640625 -31.046875 11.828125 -31.984375 C 14.023438 -32.929688 16.484375 -33.40625 19.203125 -33.40625 C 23.847656 -33.40625 27.503906 -32.242188 30.171875 -29.921875 C 32.847656 -27.597656 34.1875 -24.304688 34.1875 -20.046875 L 34.1875 0 L 27.015625 0 L 26.234375 -5.265625 C 25.265625 -3.503906 23.914062 -2.054688 22.1875 -0.921875 C 20.457031 0.210938 18.234375 0.78125 15.515625 0.78125 Z M 17.421875 -5.78125 C 19.835938 -5.78125 21.710938 -6.566406 23.046875 -8.140625 C 24.378906 -9.722656 25.222656 -11.675781 25.578125 -14 L 18.40625 -14 C 16.175781 -14 14.578125 -13.59375 13.609375 -12.78125 C 12.640625 -11.976562 12.15625 -10.984375 12.15625 -9.796875 C 12.15625 -8.523438 12.640625 -7.535156 13.609375 -6.828125 C 14.578125 -6.128906 15.847656 -5.78125 17.421875 -5.78125 Z M 17.421875 -5.78125 "/></g></g></g><g fill="#1d4ed8" fill-opacity="1"><g transform="translate(191.16021, 75.474555)"><g><path d="M 20.25 0.78125 C 16.914062 0.78125 13.976562 0.0625 11.4375 -1.375 C 8.894531 -2.820312 6.890625 -4.835938 5.421875 -7.421875 C 3.953125 -10.015625 3.21875 -12.976562 3.21875 -16.3125 C 3.21875 -19.632812 3.953125 -22.585938 5.421875 -25.171875 C 6.890625 -27.765625 8.894531 -29.785156 11.4375 -31.234375 C 13.976562 -32.679688 16.914062 -33.40625 20.25 -33.40625 C 24.414062 -33.40625 27.921875 -32.316406 30.765625 -30.140625 C 33.617188 -27.972656 35.441406 -24.984375 36.234375 -21.171875 L 27.359375 -21.171875 C 26.910156 -22.742188 26.039062 -23.976562 24.75 -24.875 C 23.457031 -25.78125 21.9375 -26.234375 20.1875 -26.234375 C 17.863281 -26.234375 15.890625 -25.351562 14.265625 -23.59375 C 12.640625 -21.84375 11.828125 -19.414062 11.828125 -16.3125 C 11.828125 -13.195312 12.640625 -10.757812 14.265625 -9 C 15.890625 -7.25 17.863281 -6.375 20.1875 -6.375 C 21.9375 -6.375 23.457031 -6.8125 24.75 -7.6875 C 26.039062 -8.5625 26.910156 -9.8125 27.359375 -11.4375 L 36.234375 -11.4375 C 35.441406 -7.757812 33.617188 -4.800781 30.765625 -2.5625 C 27.921875 -0.332031 24.414062 0.78125 20.25 0.78125 Z M 20.25 0.78125 "/></g></g></g><g fill="#1d4ed8" fill-opacity="1"><g transform="translate(227.640593, 75.474555)"><g><path d="M 19.921875 0.78125 C 16.765625 0.78125 13.925781 0.0625 11.40625 -1.375 C 8.882812 -2.820312 6.890625 -4.828125 5.421875 -7.390625 C 3.953125 -9.960938 3.21875 -12.9375 3.21875 -16.3125 C 3.21875 -19.6875 3.960938 -22.65625 5.453125 -25.21875 C 6.941406 -27.78125 8.945312 -29.785156 11.46875 -31.234375 C 13.988281 -32.679688 16.828125 -33.40625 19.984375 -33.40625 C 23.097656 -33.40625 25.914062 -32.679688 28.4375 -31.234375 C 30.957031 -29.785156 32.953125 -27.78125 34.421875 -25.21875 C 35.890625 -22.65625 36.625 -19.6875 36.625 -16.3125 C 36.625 -12.9375 35.890625 -9.960938 34.421875 -7.390625 C 32.953125 -4.828125 30.945312 -2.820312 28.40625 -1.375 C 25.863281 0.0625 23.035156 0.78125 19.921875 0.78125 Z M 19.921875 -6.515625 C 22.109375 -6.515625 24.015625 -7.332031 25.640625 -8.96875 C 27.265625 -10.613281 28.078125 -13.0625 28.078125 -16.3125 C 28.078125 -19.550781 27.265625 -21.992188 25.640625 -23.640625 C 24.015625 -25.285156 22.128906 -26.109375 19.984375 -26.109375 C 17.753906 -26.109375 15.835938 -25.285156 14.234375 -23.640625 C 12.628906 -21.992188 11.828125 -19.550781 11.828125 -16.3125 C 11.828125 -13.0625 12.628906 -10.613281 14.234375 -8.96875 C 15.835938 -7.332031 17.734375 -6.515625 19.921875 -6.515625 Z M 19.921875 -6.515625 "/></g></g></g><g fill="#1d4ed8" fill-opacity="1"><g transform="translate(264.51536, 75.474555)"><g><path d="M 4.28125 0 L 4.28125 -32.609375 L 11.703125 -32.609375 L 12.359375 -27.09375 C 13.367188 -29.019531 14.828125 -30.550781 16.734375 -31.6875 C 18.640625 -32.832031 20.882812 -33.40625 23.46875 -33.40625 C 27.5 -33.40625 30.632812 -32.132812 32.875 -29.59375 C 35.113281 -27.050781 36.234375 -23.320312 36.234375 -18.40625 L 36.234375 0 L 27.8125 0 L 27.8125 -17.625 C 27.8125 -20.425781 27.238281 -22.570312 26.09375 -24.0625 C 24.957031 -25.550781 23.1875 -26.296875 20.78125 -26.296875 C 18.40625 -26.296875 16.460938 -25.460938 14.953125 -23.796875 C 13.441406 -22.128906 12.6875 -19.804688 12.6875 -16.828125 L 12.6875 0 Z M 4.28125 0 "/></g></g></g><g fill="#1d4ed8" fill-opacity="1"><g transform="translate(301.521575, 75.474555)"><g><path d="M 16.5 0.78125 C 12.425781 0.78125 9.28125 -0.488281 7.0625 -3.03125 C 4.851562 -5.570312 3.75 -9.296875 3.75 -14.203125 L 3.75 -32.609375 L 12.09375 -32.609375 L 12.09375 -14.984375 C 12.09375 -12.179688 12.660156 -10.035156 13.796875 -8.546875 C 14.941406 -7.054688 16.742188 -6.3125 19.203125 -6.3125 C 21.523438 -6.3125 23.441406 -7.144531 24.953125 -8.8125 C 26.460938 -10.476562 27.21875 -12.800781 27.21875 -15.78125 L 27.21875 -32.609375 L 35.640625 -32.609375 L 35.640625 0 L 28.203125 0 L 27.546875 -5.515625 C 26.535156 -3.585938 25.078125 -2.054688 23.171875 -0.921875 C 21.265625 0.210938 19.039062 0.78125 16.5 0.78125 Z M 16.5 0.78125 "/></g></g></g><g fill="#1d4ed8" fill-opacity="1"><g transform="translate(338.527804, 75.474555)"><g><path d="M 18.796875 0 C 15.378906 0 12.640625 -0.832031 10.578125 -2.5 C 8.523438 -4.164062 7.5 -7.125 7.5 -11.375 L 7.5 -25.578125 L 1.90625 -25.578125 L 1.90625 -32.609375 L 7.5 -32.609375 L 8.484375 -41.359375 L 15.90625 -41.359375 L 15.90625 -32.609375 L 24.71875 -32.609375 L 24.71875 -25.578125 L 15.90625 -25.578125 L 15.90625 -11.3125 C 15.90625 -9.726562 16.242188 -8.640625 16.921875 -8.046875 C 17.609375 -7.460938 18.785156 -7.171875 20.453125 -7.171875 L 24.53125 -7.171875 L 24.53125 0 Z M 18.796875 0 "/></g></g></g></svg>