<svg width="16" height="17" viewBox="0 0 16 17" fill="none" xmlns="http://www.w3.org/2000/svg">
<path d="M7.99935 4.3824C10.526 4.3824 12.7793 5.8024 13.8793 8.04907C12.7793 10.2957 10.5327 11.7157 7.99935 11.7157C5.46602 11.7157 3.21935 10.2957 2.11935 8.04907C3.21935 5.8024 5.47268 4.3824 7.99935 4.3824ZM7.99935 3.04907C4.66602 3.04907 1.81935 5.1224 0.666016 8.04907C1.81935 10.9757 4.66602 13.0491 7.99935 13.0491C11.3327 13.0491 14.1793 10.9757 15.3327 8.04907C14.1793 5.1224 11.3327 3.04907 7.99935 3.04907ZM7.99935 6.3824C8.91935 6.3824 9.66602 7.12907 9.66602 8.04907C9.66602 8.96907 8.91935 9.71574 7.99935 9.71574C7.07935 9.71574 6.33268 8.96907 6.33268 8.04907C6.33268 7.12907 7.07935 6.3824 7.99935 6.3824ZM7.99935 5.04907C6.34602 5.04907 4.99935 6.39574 4.99935 8.04907C4.99935 9.7024 6.34602 11.0491 7.99935 11.0491C9.65268 11.0491 10.9993 9.7024 10.9993 8.04907C10.9993 6.39574 9.65268 5.04907 7.99935 5.04907Z" fill="#4BAC99"/>
</svg>
